<?xml version="1.0" encoding="utf-8"?>
<!-- Generator: Adobe Illustrator 22.0.1, SVG Export Plug-In . SVG Version: 6.00 Build 0)  -->
<svg version="1.1" id="Layer_1" xmlns="http://www.w3.org/2000/svg" xmlns:xlink="http://www.w3.org/1999/xlink" x="0px" y="0px"
	 viewBox="0 0 155 55" style="enable-background:new 0 0 155 55;" xml:space="preserve">
<style type="text/css">
	.st0{fill:#F08D5A;}
	.st1{fill:#F8D0BC;}
	.st2{fill:#FFFFFF;}
	.st3{fill:none;stroke:#303C42;stroke-width:2;stroke-linecap:round;stroke-linejoin:round;}
</style>
<polygon class="st0" points="54,28 65.3,28 75.1,43.3 65.3,43.7 57.3,39.2 54,31.1 "/>
<polygon class="st0" points="75.4,28 88.5,27.9 89.8,26.4 89.8,22.4 90.4,21 91.7,20.5 93.1,23.3 93.9,24.3 97.8,25 99,25.5 
	99.5,26.6 95.8,29.3 92.9,30.3 89.3,35.2 83.9,39.7 78.9,33.7 "/>
<polygon class="st1" points="65.5,28.2 75.1,28 83.2,40.2 75.1,43.3 "/>
<polygon class="st2" points="56,28 56,22 62,22 62,16 74,16 74,10 80,10 80,22 86,22 86,28 "/>
<g id="Docker">
	<g id="_Group_">
		<circle id="_Path_" class="st3" cx="63.1" cy="35" r="1"/>
		<rect id="_Rectangle_" x="56" y="22" class="st3" width="6" height="6"/>
		<rect id="_Rectangle_2" x="62" y="22" class="st3" width="6" height="6"/>
		<rect id="_Rectangle_3" x="68" y="22" class="st3" width="6" height="6"/>
		<rect id="_Rectangle_4" x="74" y="22" class="st3" width="6" height="6"/>
		<rect id="_Rectangle_5" x="62" y="16" class="st3" width="6" height="6"/>
		<rect id="_Rectangle_6" x="68" y="16" class="st3" width="6" height="6"/>
		<rect id="_Rectangle_7" x="74" y="16" class="st3" width="6" height="6"/>
		<rect id="_Rectangle_8" x="74" y="10" class="st3" width="6" height="6"/>
		<rect id="_Rectangle_9" x="80" y="22" class="st3" width="6" height="6"/>
		<path id="_Path_2" class="st3" d="M100,26c0,0-3.5-2.2-6-1c-0.2-2-1.3-3.9-3-5c-1.2,1.7-1.6,3.8-1.2,5.8c0.1,1.1-0.6,2.1-1.7,2.2
			c-0.1,0-0.2,0-0.3,0H54c0,12.5,7.7,16,15,16c10,0.1,19.2-5.3,24.1-14C95.9,29.8,98.4,28.3,100,26z"/>
	</g>
</g>
<line class="st3" x1="74.6" y1="28" x2="83.2" y2="40.2"/>
<line class="st3" x1="65.3" y1="28" x2="75.1" y2="43.3"/>
</svg>
